<svg t="1673253817127" class="icon" viewBox="0 0 1024 1024" version="1.1" xmlns="http://www.w3.org/2000/svg" p-id="1997" width="200" height="200"><path d="M818.8816 192c8.32 19.52 13.12 41.28 13.12 64s-4.8 44.48-13.12 64c-24.96 56.32-81.28 96-146.88 96s-121.92-39.68-146.88-96c-8.32-19.52-13.12-41.28-13.12-64s4.8-44.48 13.12-64c24.96-56.32 81.28-96 146.88-96s121.92 39.68 146.88 96zM498.8816 704c8.32 19.52 13.12 41.28 13.12 64s-4.8 44.48-13.12 64c-24.96 56.32-81.28 96-146.88 96s-121.92-39.68-146.88-96c-8.32-19.52-13.12-41.28-13.12-64s4.8-44.48 13.12-64c24.96-56.32 81.28-96 146.88-96s121.92 39.68 146.88 96z" fill="#E0EBFE" p-id="1998"></path><path d="M928.0016 672H517.9856A192.64 192.64 0 0 0 352.0016 576c-68.64 0-131.424 37.056-165.92 96H96.0016c-25.984 0-50.112 10.112-67.424 27.936A94.08 94.08 0 0 0 0.0016 768c0 52.928 43.072 96 96 96h90.016A192.64 192.64 0 0 0 352.0016 960c68.64 0 131.424-37.056 165.92-96H928.0016c25.984 0 50.112-10.112 67.424-27.936A94.08 94.08 0 0 0 1024.0016 768c0-52.928-43.072-96-96-96zM96.0016 800a32 32 0 0 1-32-32c0-8.544 3.296-16.448 9.824-22.816A30.72 30.72 0 0 1 96.0016 736h66.88c-1.76 10.56-2.88 21.216-2.88 32 0 10.784 1.12 21.44 2.88 32H96.0016z m373.632 19.04A129.024 129.024 0 0 1 352.0016 896a128.864 128.864 0 0 1-117.376-76.416l-0.064-0.128a130.944 130.944 0 0 1-0.192-102.496A129.024 129.024 0 0 1 352.0016 640c50.688 0 96.8 30.176 117.376 76.416l0.064 0.128a130.88 130.88 0 0 1 0.192 102.496z m480.544-28.224A30.72 30.72 0 0 1 928.0016 800H541.1216c1.76-10.56 2.88-21.216 2.88-32 0-10.784-1.12-21.44-2.88-32H928.0016a32 32 0 0 1 32 32 31.264 31.264 0 0 1-9.824 22.816zM928.0016 160h-90.016A192.64 192.64 0 0 0 672.0016 64c-68.64 0-131.424 37.056-165.952 96H96.0016c-25.92 0-50.08 10.144-67.424 27.968A94.048 94.048 0 0 0 0.0016 256c0 52.928 43.072 96 96 96h410.016A192.64 192.64 0 0 0 672.0016 448c68.64 0 131.424-37.056 165.952-96H928.0016c25.92 0 50.08-10.144 67.424-27.968C1013.8896 306.112 1024.0016 281.952 1024.0016 256c0-52.928-43.072-96-96-96zM96.0016 288c-17.664 0-32-14.368-32-32 0-8.544 3.296-16.416 9.792-22.784A30.72 30.72 0 0 1 96.0016 224h386.88c-1.76 10.56-2.88 21.216-2.88 32 0 10.784 1.12 21.44 2.88 32H96.0016z m693.632 19.04A129.024 129.024 0 0 1 672.0016 384a128.864 128.864 0 0 1-117.376-76.448l-0.064-0.096a130.752 130.752 0 0 1-0.192-102.496C575.1376 158.24 621.2816 128 672.0016 128s96.864 30.208 117.44 76.544a130.752 130.752 0 0 1 0.192 102.496z m160.576-28.256A30.72 30.72 0 0 1 928.0016 288h-66.88c1.76-10.56 2.88-21.216 2.88-32 0-10.784-1.12-21.44-2.88-32H928.0016c17.664 0 32 14.368 32 32a31.232 31.232 0 0 1-9.792 22.784z" fill="#5465CF" p-id="1999"></path></svg>